<?xml version="1.0" encoding="UTF-8"?>
<svg version="1.1" xmlns="http://www.w3.org/2000/svg" width="83" height="100">
<path d="M0 0 C27.39 0 54.78 0 83 0 C83 33 83 66 83 100 C55.61 100 28.22 100 0 100 C0 67 0 34 0 0 Z " fill="#080808" transform="translate(0,0)"/>
<path d="M0 0 C27.39 0 54.78 0 83 0 C83 33 83 66 83 100 C55.61 100 28.22 100 0 100 C0 67 0 34 0 0 Z M9 11 C9 38.39 9 65.78 9 94 C9.66 94 10.32 94 11 94 C11 90.04 11 86.08 11 82 C11.99 82 12.98 82 14 82 C14 85.96 14 89.92 14 94 C14.33 94 14.66 94 15 94 C15.33 91.69 15.66 89.38 16 87 C16.99 89.31 17.98 91.62 19 94 C19.66 94 20.32 94 21 94 C21.66 92.68 22.32 91.36 23 90 C23.33 91.32 23.66 92.64 24 94 C24.66 94 25.32 94 26 94 C26 90.04 26 86.08 26 82 C26.99 82 27.98 82 29 82 C29 85.96 29 89.92 29 94 C29.66 94 30.32 94 31 94 C31 92.35 31 90.7 31 89 C33.475 88.505 33.475 88.505 36 88 C35.67 86.35 35.34 84.7 35 83 C36.98 82.505 36.98 82.505 39 82 C38.34 82.99 37.68 83.98 37 85 C36.66042437 89.07490752 36.68667514 90.53001271 39 94 C42 94.41666667 42 94.41666667 45 94 C47.1702792 92.2412636 47.1702792 92.2412636 47.23046875 90.08984375 C47.53754032 86.23314049 47.53754032 86.23314049 46 83 C46.99 82.67 47.98 82.34 49 82 C49 85.96 49 89.92 49 94 C49.66 94 50.32 94 51 94 C51 92.35 51 90.7 51 89 C54 91 54 91 55 94 C55.66 94 56.32 94 57 94 C56.814375 93.0925 56.62875 92.185 56.4375 91.25 C56.04265379 88.31685676 56.05308428 86.7355343 57 84 C58.32 84 59.64 84 61 84 C61 87.3 61 90.6 61 94 C61.66 94 62.32 94 63 94 C63 90.7 63 87.4 63 84 C63.99 84 64.98 84 66 84 C66.33 83.67 66.66 83.34 67 83 C67.33 84.65 67.66 86.3 68 88 C68.99 88.33 69.98 88.66 71 89 C71 89.99 71 90.98 71 92 C69.68 92 68.36 92 67 92 C67 92.66 67 93.32 67 94 C68.65 94 70.3 94 72 94 C72.99 92.02 72.99 92.02 74 90 C72.35 88.02 70.7 86.04 69 84 C70.32 84 71.64 84 73 84 C74.46041228 81.07917545 74.11928796 78.51698631 74.11352539 75.25537109 C74.11367142 74.56257553 74.11381744 73.86977997 74.1139679 73.1559906 C74.11327018 70.86177459 74.10548442 68.56763936 74.09765625 66.2734375 C74.09579157 64.68445887 74.0943679 63.09547966 74.09336853 61.50650024 C74.08954731 57.32090675 74.07972039 53.13534787 74.06866455 48.94976807 C74.05844194 44.68005847 74.05386909 40.4103433 74.04882812 36.140625 C74.03809778 27.76040077 74.02102608 19.38020469 74 11 C71.62532435 11.28759898 69.25204425 11.58299213 66.87890625 11.8828125 C65.8819574 12.00233276 65.8819574 12.00233276 64.86486816 12.12426758 C54.93695848 13.39606232 44.416501 16.8559795 38 25 C37.56738889 27.43381578 37.56738889 27.43381578 38 30 C42.9813764 36.33993359 50.14239832 39.80945429 58 41 C50.06143775 41.70564998 43.46453205 38.70187539 36.4375 35.25 C33.0110955 32.08716507 32.75816903 29.54901421 32 25 C31.01 25.495 31.01 25.495 30 26 C29.57821281 30.21787194 29.66829102 32.44715171 31.875 36.125 C37.06806772 41.64263446 44.79175599 44.27628947 52 46 C42.60678109 45.67720897 35.16535291 44.07723152 27.0625 39.25 C24.17775753 36.10300821 23.28533525 33.05895343 22 29 C21.34 29.33 20.68 29.66 20 30 C19.66966841 34.73475278 20.24822924 37.14509647 23 41 C30.45988564 46.81734201 39.68622798 50.64061998 49 52 C37.96060605 51.81545086 26.2577183 50.49937624 17.25 43.4375 C14.27516828 40.21476564 13.19091482 38.46368032 12.625 34.125 C13.19975017 29.33541526 15.13999752 26.57539003 18.8125 23.46484375 C27.45732795 17.25137366 37.6173248 13.935753 48 12 C48 11.67 48 11.34 48 11 C35.13 11 22.26 11 9 11 Z " fill="#F9F9F9" transform="translate(0,0)"/>
<path d="M0 0 C0.33 0 0.66 0 1 0 C1 23.1 1 46.2 1 70 C21.79 70 42.58 70 64 70 C64 46.9 64 23.8 64 0 C64.33 0 64.66 0 65 0 C65.02313993 9.22270478 65.04092354 18.44539961 65.05181217 27.66812706 C65.05703738 31.95031126 65.06412848 36.23247564 65.07543945 40.51464844 C65.08628117 44.64487529 65.09227957 48.77508305 65.09487724 52.90532303 C65.09672917 54.4834282 65.10034535 56.06153229 65.10573006 57.63962936 C65.11295752 59.84489984 65.11399022 62.05009074 65.11352539 64.25537109 C65.115746 65.51223724 65.11796661 66.76910339 65.12025452 68.0640564 C65 71 65 71 64 73 C62.68 73 61.36 73 60 73 C61.65 74.98 63.3 76.96 65 79 C64.34 80.32 63.68 81.64 63 83 C61.35 83 59.7 83 58 83 C58 82.34 58 81.68 58 81 C59.32 81 60.64 81 62 81 C62 80.01 62 79.02 62 78 C61.360625 77.773125 60.72125 77.54625 60.0625 77.3125 C58 76 58 76 57.25 73.375 C57.1675 72.59125 57.085 71.8075 57 71 C57 71.66 57 72.32 57 73 C56.01 73 55.02 73 54 73 C54 76.3 54 79.6 54 83 C53.34 83 52.68 83 52 83 C52 79.7 52 76.4 52 73 C50.68 73 49.36 73 48 73 C47.04975021 76.69541586 47.04975021 79.30458414 48 83 C47.34 83 46.68 83 46 83 C45.566875 82.0409375 45.566875 82.0409375 45.125 81.0625 C44.17176549 78.84793921 44.17176549 78.84793921 42 78 C42 79.65 42 81.3 42 83 C41.34 83 40.68 83 40 83 C40 79.04 40 75.08 40 71 C39.01 71.33 38.02 71.66 37 72 C37.33 72.33 37.66 72.66 38 73 C38.27314815 78.73611111 38.27314815 78.73611111 38 81 C36 83 36 83 33 83.3125 C32.01 83.209375 31.02 83.10625 30 83 C27.68667514 79.53001271 27.66042437 78.07490752 28 74 C28.66 73.01 29.32 72.02 30 71 C28.02 71.495 28.02 71.495 26 72 C26.33 73.65 26.66 75.3 27 77 C24.525 77.495 24.525 77.495 22 78 C22 79.65 22 81.3 22 83 C21.34 83 20.68 83 20 83 C20 79.04 20 75.08 20 71 C19.01 71 18.02 71 17 71 C17 74.96 17 78.92 17 83 C16.34 83 15.68 83 15 83 C14.67 81.68 14.34 80.36 14 79 C13.34 80.32 12.68 81.64 12 83 C11.34 83 10.68 83 10 83 C9.01 80.69 8.02 78.38 7 76 C6.67 78.31 6.34 80.62 6 83 C5.67 83 5.34 83 5 83 C5 79.04 5 75.08 5 71 C4.01 71 3.02 71 2 71 C2 74.96 2 78.92 2 83 C1.34 83 0.68 83 0 83 C0 55.61 0 28.22 0 0 Z " fill="#858585" transform="translate(9,11)"/>
<path d="M0 0 C1.98 0 3.96 0 6 0 C6.33 2.64 6.66 5.28 7 8 C7.42410156 7.4225 7.84820313 6.845 8.28515625 6.25 C13.135506 0.10977702 13.135506 0.10977702 17.9375 -0.5 C19.4534375 -0.2525 19.4534375 -0.2525 21 0 C20.60167969 0.45890625 20.20335938 0.9178125 19.79296875 1.390625 C18.99826172 2.31101563 18.99826172 2.31101563 18.1875 3.25 C17.66542969 3.85328125 17.14335937 4.4565625 16.60546875 5.078125 C15.00229513 6.99725255 13.5003859 8.99948547 12 11 C14.97 13.97 17.94 16.94 21 20 C21.81404297 18.31970703 21.81404297 18.31970703 22.64453125 16.60546875 C23.36686662 15.13265508 24.08954062 13.66000746 24.8125 12.1875 C25.16892578 11.44951172 25.52535156 10.71152344 25.89257812 9.95117188 C26.24384766 9.23896484 26.59511719 8.52675781 26.95703125 7.79296875 C27.27647705 7.1383667 27.59592285 6.48376465 27.92504883 5.80932617 C29.06901894 3.88382936 30.35744135 2.51164489 32 1 C34.28964059 5.94080338 34.28964059 5.94080338 33.46484375 8.95703125 C32.71434788 10.67095437 31.86320768 12.33998524 31 14 C33.31 14 35.62 14 38 14 C36.35 9.38 34.7 4.76 33 0 C34.98 0 36.96 0 39 0 C40.98 4.62 42.96 9.24 45 14 C47.48830503 11.51169497 48.30825691 9.1322066 49.625 5.875 C50.29402344 4.23144531 50.29402344 4.23144531 50.9765625 2.5546875 C51.31429687 1.71164063 51.65203125 0.86859375 52 0 C53.98 0 55.96 0 58 0 C56.68890091 3.2922264 55.37588318 6.58368421 54.0625 9.875 C53.68931641 10.81214844 53.31613281 11.74929687 52.93164062 12.71484375 C52.57392578 13.61074219 52.21621094 14.50664063 51.84765625 15.4296875 C51.3527771 16.67081299 51.3527771 16.67081299 50.84790039 17.93701172 C50 20 50 20 49 22 C46.69 22 44.38 22 42 22 C41.34 20.68 40.68 19.36 40 18 C36.37 18 32.74 18 29 18 C28.34 19.32 27.68 20.64 27 22 C16.77578475 23.22690583 16.77578475 23.22690583 12.421875 20.21875 C10.47156573 18.22634773 8.68482487 16.22000453 7 14 C6.67 16.97 6.34 19.94 6 23 C4.02 23 2.04 23 0 23 C0 15.41 0 7.82 0 0 Z " fill="#F2F2F2" transform="translate(13,56)"/>
<path d="M0 0 C1.98 0 3.96 0 6 0 C6.33 2.64 6.66 5.28 7 8 C7.42410156 7.4225 7.84820313 6.845 8.28515625 6.25 C13.135506 0.10977702 13.135506 0.10977702 17.9375 -0.5 C19.4534375 -0.2525 19.4534375 -0.2525 21 0 C20.60167969 0.45890625 20.20335938 0.9178125 19.79296875 1.390625 C18.99826172 2.31101563 18.99826172 2.31101563 18.1875 3.25 C17.66542969 3.85328125 17.14335937 4.4565625 16.60546875 5.078125 C14.99707924 7.00349638 13.48780592 8.98051569 12 11 C12.721875 11.71027344 13.44375 12.42054687 14.1875 13.15234375 C15.5796875 14.53099609 15.5796875 14.53099609 17 15.9375 C17.928125 16.85402344 18.85625 17.77054688 19.8125 18.71484375 C22 21 22 21 22 22 C19.21409835 22.46431694 17.68968705 22.68373353 15 22 C11.99851833 19.61969454 9.49292384 16.90085684 7 14 C6.67 16.97 6.34 19.94 6 23 C4.02 23 2.04 23 0 23 C0 15.41 0 7.82 0 0 Z " fill="#E8E8E8" transform="translate(13,56)"/>
<path d="M0 0 C0.33 0 0.66 0 1 0 C1.02313993 9.22270478 1.04092354 18.44539961 1.05181217 27.66812706 C1.05703738 31.95031126 1.06412848 36.23247564 1.07543945 40.51464844 C1.08628117 44.64487529 1.09227957 48.77508305 1.09487724 52.90532303 C1.09672917 54.4834282 1.10034535 56.06153229 1.10573006 57.63962936 C1.11295752 59.84489984 1.11399022 62.05009074 1.11352539 64.25537109 C1.115746 65.51223724 1.11796661 66.76910339 1.12025452 68.0640564 C1 71 1 71 0 73 C-1.32 73 -2.64 73 -4 73 C-2.35 74.98 -0.7 76.96 1 79 C0.34 80.32 -0.32 81.64 -1 83 C-2.65 83 -4.3 83 -6 83 C-6 82.34 -6 81.68 -6 81 C-4.68 81 -3.36 81 -2 81 C-2 80.01 -2 79.02 -2 78 C-2.639375 77.773125 -3.27875 77.54625 -3.9375 77.3125 C-6 76 -6 76 -6.75 73.375 C-6.8325 72.59125 -6.915 71.8075 -7 71 C-7 71.66 -7 72.32 -7 73 C-7.99 73 -8.98 73 -10 73 C-10 76.3 -10 79.6 -10 83 C-10.66 83 -11.32 83 -12 83 C-12 79.7 -12 76.4 -12 73 C-13.32 73 -14.64 73 -16 73 C-16.95024979 76.69541586 -16.95024979 79.30458414 -16 83 C-16.66 83 -17.32 83 -18 83 C-18.433125 82.0409375 -18.433125 82.0409375 -18.875 81.0625 C-19.82823451 78.84793921 -19.82823451 78.84793921 -22 78 C-22 79.65 -22 81.3 -22 83 C-22.66 83 -23.32 83 -24 83 C-24 78.71 -24 74.42 -24 70 C-16.08 70 -8.16 70 0 70 C0 46.9 0 23.8 0 0 Z " fill="#8D8D8D" transform="translate(73,11)"/>
<path d="M0 0 C1.89488952 1.89488952 1.18019112 4.57139146 1.23046875 7.08984375 C1 9 1 9 -1 11 C-4 11.3125 -4 11.3125 -7 11 C-9.31282587 7.53076119 -9.42478586 6.07794425 -9 2 C-6.69566258 -1.96858112 -4.04869963 -1.05618251 0 0 Z " fill="#1A1A1A" transform="translate(46,83)"/>
<path d="M0 0 C0.99 0.33 1.98 0.66 3 1 C4.1875 4.5625 4.1875 4.5625 5 8 C5.66 8 6.32 8 7 8 C7.4021875 6.2984375 7.4021875 6.2984375 7.8125 4.5625 C8.4003125 2.7990625 8.4003125 2.7990625 9 1 C9.99 0.67 10.98 0.34 12 0 C12 3.96 12 7.92 12 12 C11.34 12 10.68 12 10 12 C9.67 10.68 9.34 9.36 9 8 C8.34 9.32 7.68 10.64 7 12 C6.34 12 5.68 12 5 12 C4.01 9.69 3.02 7.38 2 5 C1.67 7.31 1.34 9.62 1 12 C0.67 12 0.34 12 0 12 C0 8.04 0 4.08 0 0 Z " fill="#1D1D1D" transform="translate(14,82)"/>
<path d="M0 0 C2.97 0.495 2.97 0.495 6 1 C6.33 2.65 6.66 4.3 7 6 C5.35 6.33 3.7 6.66 2 7 C2 8.65 2 10.3 2 12 C1.34 12 0.68 12 0 12 C0 8.04 0 4.08 0 0 Z " fill="#525252" transform="translate(29,82)"/>
<path d="M0 0 C3 1 3 1 4.16796875 3.1796875 C4.50441406 4.06914063 4.84085938 4.95859375 5.1875 5.875 C5.53167969 6.75929688 5.87585937 7.64359375 6.23046875 8.5546875 C7 11 7 11 7 14 C4.69 14 2.38 14 0 14 C0.93604651 9.18604651 0.93604651 9.18604651 1.6875 7 C2.12029274 4.23012648 1.17531853 2.48890983 0 0 Z " fill="#222222" transform="translate(44,56)"/>
<path d="M0 0 C1.67542976 0.28604898 3.34385343 0.61781233 5 1 C5 3.31 5 5.62 5 8 C3.125 8.625 3.125 8.625 1 9 C-1 7 -1 7 -1.1875 3.9375 C-1 1 -1 1 0 0 Z " fill="#F2F2F2" transform="translate(40,84)"/>
<path d="M0 0 C-1.32 0.33 -2.64 0.66 -4 1 C-2.35 2.98 -0.7 4.96 1 7 C0.34 8.32 -0.32 9.64 -1 11 C-2.65 11 -4.3 11 -6 11 C-6 10.34 -6 9.68 -6 9 C-4.68 9 -3.36 9 -2 9 C-2 8.01 -2 7.02 -2 6 C-3.32 5.34 -4.64 4.68 -6 4 C-6 2.68 -6 1.36 -6 0 C-3.50907189 -1.24546405 -2.58919267 -0.7767578 0 0 Z " fill="#303030" transform="translate(73,83)"/>
<path d="M0 0 C2.64 0 5.28 0 8 0 C8 0.66 8 1.32 8 2 C7.01 2 6.02 2 5 2 C5 5.3 5 8.6 5 12 C4.34 12 3.68 12 3 12 C3 8.7 3 5.4 3 2 C2.01 2 1.02 2 0 2 C0 1.34 0 0.68 0 0 Z " fill="#3A3A3A" transform="translate(58,82)"/>
<path d="M0 0 C0.66 0 1.32 0 2 0 C2 3.96 2 7.92 2 12 C1.34 12 0.68 12 0 12 C-1 10 -2 8 -3 6 C-2.06553465 3.96855359 -1.06775224 1.96466413 0 0 Z " fill="#303030" transform="translate(24,82)"/>
<path d="M0 0 C1.98 0 3.96 0 6 0 C5.125 5.75 5.125 5.75 4 8 C3.34 8 2.68 8 2 8 C0.74335022 5.09399739 0 3.20395416 0 0 Z " fill="#F2F2F2" transform="translate(17,82)"/>
<path d="M0 0 C0.99 0.495 0.99 0.495 2 1 C1.67 1.99 1.34 2.98 1 4 C2.32 4 3.64 4 5 4 C5.66 6.31 6.32 8.62 7 11 C6.34 11 5.68 11 5 11 C4.71125 10.360625 4.4225 9.72125 4.125 9.0625 C3.17176549 6.84793921 3.17176549 6.84793921 1 6 C1 7.65 1 9.3 1 11 C0.67 11 0.34 11 0 11 C0 7.37 0 3.74 0 0 Z " fill="#1A1A1A" transform="translate(50,83)"/>
<path d="M0 0 C2.97 0.495 2.97 0.495 6 1 C6.33 2.32 6.66 3.64 7 5 C4.50907189 6.24546405 3.58919267 5.7767578 1 5 C0.67 3.35 0.34 1.7 0 0 Z " fill="#7F7F7F" transform="translate(50,82)"/>
<path d="M0 0 C2.97 0.495 2.97 0.495 6 1 C7 4 7 4 6.0625 6.1875 C5.5365625 7.0846875 5.5365625 7.0846875 5 8 C4.9175 7.21625 4.835 6.4325 4.75 5.625 C4.27193661 2.85250896 4.27193661 2.85250896 1.9375 1.6875 C1.298125 1.460625 0.65875 1.23375 0 1 C0 0.67 0 0.34 0 0 Z " fill="#444444" transform="translate(40,82)"/>
</svg>
