<svg width="16" height="16" viewBox="0 0 16 16" fill="none" xmlns="http://www.w3.org/2000/svg">
<path d="M13.018 13.9515C11.5558 15.4138 7.81097 14.0398 4.65379 10.8826C1.49662 7.72546 0.122623 3.98066 1.58489 2.51838L2.54768 1.55559C3.21235 0.890922 4.30756 0.908492 4.99391 1.59483L6.48519 3.08612C7.17153 3.77246 7.1891 4.86767 6.52443 5.53234L6.31763 5.73914C5.95877 6.098 5.92366 6.67692 6.25711 7.08101C6.57875 7.47077 6.9255 7.859 7.30147 8.23496C7.67743 8.61093 8.06566 8.95768 8.45542 9.27932C8.8595 9.61277 9.43842 9.57766 9.79729 9.21879L10.0041 9.012C10.6688 8.34733 11.764 8.3649 12.4503 9.05124L13.9416 10.5425C14.6279 11.2289 14.6455 12.3241 13.9808 12.9887L13.018 13.9515Z" fill="white" stroke="white" stroke-width="1.2"/>
<path d="M11.9439 5.55722C11.7613 5.11189 11.4892 4.69466 11.1276 4.33306C10.7865 3.99189 10.3958 3.73041 9.97866 3.54862" stroke="#4285F4" stroke-width="1.2" stroke-linecap="round"/>
<path d="M9.97869 1.00262C10.9773 1.36439 11.9142 1.94557 12.7148 2.74616C13.5355 3.56685 14.1256 4.53082 14.4852 5.55761" stroke="#4285F4" stroke-width="1.2" stroke-linecap="round"/>
</svg>
