<svg width="22" height="26" viewBox="0 0 22 26" fill="none" xmlns="http://www.w3.org/2000/svg">
<path fill-rule="evenodd" clip-rule="evenodd" d="M10.8841 0.506348C4.88223 0.506348 0 5.32375 0 11.2868C0 14.9956 2.1628 18.656 4.45496 21.3204C5.61492 22.6688 6.84608 23.8071 7.93205 24.6167C8.47416 25.0208 8.9952 25.3543 9.46552 25.5912C9.90642 25.8132 10.4099 26.0063 10.8841 26.0063C11.3584 26.0063 11.8619 25.8132 12.3028 25.5912C12.7731 25.3543 13.2941 25.0208 13.8362 24.6167C14.9222 23.8071 16.1534 22.6688 17.3133 21.3204C19.6055 18.656 21.7683 14.9956 21.7683 11.2868C21.7683 5.32375 16.8861 0.506348 10.8841 0.506348Z" fill="white"/>
<circle cx="3.73171" cy="3.73171" r="3.73171" transform="matrix(-1 0 0 1 14.6159 7.03687)" fill="#4285F4"/>
</svg>
